<svg xmlns="http://www.w3.org/2000/svg" width="32" height="32" viewBox="0 0 32 32" fill="none"><path d="M11.9993 22.6667C11.9993 23.3739 11.7184 24.0522 11.2183 24.5523C10.7182 25.0524 10.0399 25.3333 9.33268 25.3333C8.62544 25.3333 7.94716 25.0524 7.44706 24.5523C6.94697 24.0522 6.66602 23.3739 6.66602 22.6667C6.66602 21.9594 6.94697 21.2811 7.44706 20.781C7.94716 20.281 8.62544 20 9.33268 20C10.0399 20 10.7182 20.281 11.2183 20.781C11.7184 21.2811 11.9993 21.9594 11.9993 22.6667ZM25.3327 22.6667C25.3327 23.3739 25.0517 24.0522 24.5516 24.5523C24.0515 25.0524 23.3733 25.3333 22.666 25.3333C21.9588 25.3333 21.2805 25.0524 20.7804 24.5523C20.2803 24.0522 19.9993 23.3739 19.9993 22.6667C19.9993 21.9594 20.2803 21.2811 20.7804 20.781C21.2805 20.281 21.9588 20 22.666 20C23.3733 20 24.0515 20.281 24.5516 20.781C25.0517 21.2811 25.3327 21.9594 25.3327 22.6667Z" stroke="white" stroke-width="2" stroke-linecap="round" stroke-linejoin="round"></path><path d="M17.3333 21.3332V7.99984C17.3333 7.64622 17.1929 7.30708 16.9428 7.05703C16.6928 6.80698 16.3536 6.6665 16 6.6665H5.33333C4.97971 6.6665 4.64057 6.80698 4.39052 7.05703C4.14048 7.30708 4 7.64622 4 7.99984V21.3332C4 21.6868 4.14048 22.0259 4.39052 22.276C4.64057 22.526 4.97971 22.6665 5.33333 22.6665H6.66667M17.3333 21.3332C17.3333 21.6868 17.1929 22.0259 16.9428 22.276C16.6928 22.526 16.3536 22.6665 16 22.6665H12M17.3333 21.3332V10.6665C17.3333 10.3129 17.4738 9.97374 17.7239 9.7237C17.9739 9.47365 18.313 9.33317 18.6667 9.33317H22.1147C22.4683 9.33325 22.8073 9.47377 23.0573 9.72384L27.6093 14.2758C27.8594 14.5258 27.9999 14.8649 28 15.2185V21.3332C28 21.6868 27.8595 22.0259 27.6095 22.276C27.3594 22.526 27.0203 22.6665 26.6667 22.6665H25.3333M17.3333 21.3332C17.3333 21.6868 17.4738 22.0259 17.7239 22.276C17.9739 22.526 18.313 22.6665 18.6667 22.6665H20M12 22.6665C12 21.9593 11.719 21.281 11.219 20.7809C10.7189 20.2808 10.0406 19.9998 9.33333 19.9998C8.62609 19.9998 7.94781 20.2808 7.44772 20.7809C6.94762 21.281 6.66667 21.9593 6.66667 22.6665C6.66667 23.3737 6.94762 24.052 7.44772 24.5521C7.94781 25.0522 8.62609 25.3332 9.33333 25.3332C10.0406 25.3332 10.7189 25.0522 11.219 24.5521C11.719 24.052 12 23.3737 12 22.6665ZM25.3333 22.6665C25.3333 23.3737 25.0524 24.052 24.5523 24.5521C24.0522 25.0522 23.3739 25.3332 22.6667 25.3332C21.9594 25.3332 21.2811 25.0522 20.781 24.5521C20.281 24.052 20 23.3737 20 22.6665M25.3333 22.6665C25.3333 21.9593 25.0524 21.281 24.5523 20.7809C24.0522 20.2808 23.3739 19.9998 22.6667 19.9998C21.9594 19.9998 21.2811 20.2808 20.781 20.7809C20.281 21.281 20 21.9593 20 22.6665" stroke="white" stroke-width="2" stroke-linecap="round" stroke-linejoin="round"></path></svg>