<svg xmlns="http://www.w3.org/2000/svg" width="17" height="6" viewBox="0 0 17 6" fill="none"><path d="M1.51376 13.2985L0.470764 11.734C1.02703 10.8997 1.53114 10.0131 1.9831 9.07442C2.46983 8.10095 2.73058 7.14488 2.76535 6.20618L0.0014173 5.63254V0.000375454H7.14592V4.06805C7.14592 6.36263 6.60704 8.24002 5.52928 9.70021C4.48629 11.1604 3.14778 12.3598 1.51376 13.2985ZM10.9007 13.2985L9.8577 11.734C10.414 10.8997 10.9181 10.0131 11.37 9.07442C11.8568 8.10095 12.1175 7.14488 12.1523 6.20618L9.38836 5.63254V0.000375454H16.5329V4.06805C16.5329 6.36263 15.994 8.24002 14.9162 9.70021C13.8732 11.1604 12.5347 12.3598 10.9007 13.2985Z" fill="#EC2633"></path></svg>