<svg xmlns="http://www.w3.org/2000/svg" width="46" height="46" viewBox="0 0 46 46" fill="none"><g clip-path="url(#clip0_2824_18106)"><mask id="mask0_2824_18106" style="mask-type:luminance" maskUnits="userSpaceOnUse" x="0" y="0" width="46" height="46"><path d="M45.54 45.54V0.459961H0.459961V45.54H45.54Z" fill="white" stroke="white" stroke-width="0.92"></path></mask><g mask="url(#mask0_2824_18106)"><path d="M38.9919 41.5329C40.498 40.764 41.7183 39.5331 42.4743 38.0205L45.326 32.317H31.6423L30.6001 34.4016C30.4804 34.6408 30.2965 34.8421 30.069 34.9827C29.8414 35.1233 29.5792 35.1978 29.3117 35.1978H10.0364C9.24094 35.1978 8.59605 34.5529 8.59605 33.7575V32.317H0.673828L4.90159 42.1816" stroke="black" stroke-width="0.92" stroke-miterlimit="10" stroke-linecap="round" stroke-linejoin="round"></path><path d="M45.326 41.0873C43.9923 41.4409 43.6399 42.3984 41.7315 42.3984H41.7251C39.3844 42.3984 39.3844 40.9581 37.0437 40.9581C34.7031 40.9581 34.7031 42.3984 32.3625 42.3984C30.0218 42.3984 30.0218 40.9581 27.6812 40.9581C25.3406 40.9581 25.3406 42.3984 22.9999 42.3984H23.0064C20.6657 42.3984 20.6657 40.9581 18.3251 40.9581C15.9845 40.9581 15.9845 42.3984 13.6438 42.3984C11.3032 42.3984 11.3032 40.9581 8.96252 40.9581C6.62192 40.9581 6.62192 42.3984 4.28123 42.3984H4.27485C2.36648 42.3984 2.01402 41.4409 0.680298 41.0873" stroke="black" stroke-width="0.92" stroke-miterlimit="10" stroke-linecap="round" stroke-linejoin="round"></path><path d="M45.326 44.6888C43.9923 45.0425 43.6399 46 41.7315 46H41.7251C39.3844 46 39.3844 44.5596 37.0437 44.5596C34.7031 44.5596 34.7031 46 32.3625 46C30.0218 46 30.0218 44.5596 27.6812 44.5596C25.3406 44.5596 25.3406 46 22.9999 46H23.0064C20.6657 46 20.6657 44.5596 18.3251 44.5596C15.9845 44.5596 15.9845 46 13.6438 46C11.3032 46 11.3032 44.5596 8.96252 44.5596C6.62192 44.5596 6.62192 46 4.28123 46H4.27485C2.36648 46 2.01402 45.0425 0.680298 44.6888" stroke="black" stroke-width="0.92" stroke-miterlimit="10" stroke-linecap="round" stroke-linejoin="round"></path><path d="M4.99503 29.4357V26.555H17.9586V35.1973" stroke="black" stroke-width="0.92" stroke-miterlimit="10" stroke-linecap="round" stroke-linejoin="round"></path><path d="M4.995 26.5547V20.7931H13.6374V26.5547" stroke="black" stroke-width="0.92" stroke-miterlimit="10" stroke-linecap="round" stroke-linejoin="round"></path><path d="M12.197 23.6738H13.6374" stroke="black" stroke-width="0.92" stroke-miterlimit="10" stroke-linecap="round" stroke-linejoin="round"></path><path d="M9.3161 23.6738H7.87573" stroke="black" stroke-width="0.92" stroke-miterlimit="10" stroke-linecap="round" stroke-linejoin="round"></path><path d="M9.3161 29.4355H7.87573" stroke="black" stroke-width="0.92" stroke-miterlimit="10" stroke-linecap="round" stroke-linejoin="round"></path><path d="M13.6374 29.4355H12.197" stroke="black" stroke-width="0.92" stroke-miterlimit="10" stroke-linecap="round" stroke-linejoin="round"></path><path d="M17.9586 29.4355H16.5182" stroke="black" stroke-width="0.92" stroke-miterlimit="10" stroke-linecap="round" stroke-linejoin="round"></path><path d="M19.399 26.5547H17.9586" stroke="black" stroke-width="0.92" stroke-miterlimit="10" stroke-linecap="round" stroke-linejoin="round"></path><path d="M15.0778 20.793H13.6375" stroke="black" stroke-width="0.92" stroke-miterlimit="10" stroke-linecap="round" stroke-linejoin="round"></path><path d="M25.8807 35.1973V32.3164H31.6423" stroke="black" stroke-width="0.92" stroke-miterlimit="10" stroke-linecap="round" stroke-linejoin="round"></path><path d="M37.4039 32.3164H31.6423V29.4357H37.4039M37.4039 32.3164V29.4357M37.4039 32.3164H43.1655V29.4357H37.4039M34.5231 29.4356H28.7615V26.5548H34.5231M34.5231 29.4356V26.5548M34.5231 29.4356H40.2847V26.5548H34.5231M31.6422 32.3164H25.8807V29.4357H31.6422V32.3164Z" stroke="black" stroke-width="0.92" stroke-miterlimit="10" stroke-linecap="round" stroke-linejoin="round"></path><path d="M12.9171 38.0781H12.9243" stroke="black" stroke-width="0.92" stroke-miterlimit="10" stroke-linecap="round" stroke-linejoin="round"></path><path d="M18.6715 38.0781H18.6787" stroke="black" stroke-width="0.92" stroke-miterlimit="10" stroke-linecap="round" stroke-linejoin="round"></path><path d="M24.4405 38.0781H24.4477" stroke="black" stroke-width="0.92" stroke-miterlimit="10" stroke-linecap="round" stroke-linejoin="round"></path><path d="M15.798 38.0781H15.8052" stroke="black" stroke-width="0.92" stroke-miterlimit="10" stroke-linecap="round" stroke-linejoin="round"></path><path d="M21.5523 38.0781H21.5595" stroke="black" stroke-width="0.92" stroke-miterlimit="10" stroke-linecap="round" stroke-linejoin="round"></path><path d="M27.3212 38.0781H27.3284" stroke="black" stroke-width="0.92" stroke-miterlimit="10" stroke-linecap="round" stroke-linejoin="round"></path><path d="M33.8029 35.1973H43.8856" stroke="black" stroke-width="0.92" stroke-miterlimit="10" stroke-linecap="round" stroke-linejoin="round"></path></g></g><defs><clipPath id="clip0_2824_18106"><rect width="46" height="46" fill="white"></rect></clipPath></defs></svg>